ffmpeg started on 2025-06-30 at 14:44:27
Report written to "D:\Convert\FFMetrics\reports\psnr_report-6.txt"
Log level: 32
Command line:
ffmpeg -hide_banner -nostdin -i "G:\\\xc0\xed\xe8\xec\xe5\\\xce\xed\xe3\xee\xe8\xed\xe3\xe8\\!_37_\xc7\xe8\xec\xe0_2025\\JamClub\\\xc3\xee\xf1\xef\xee\xe4\xe8\xed \xe8 \xef\xb8\xf1\\JamClub_Tono_to_Inu_Woof_Woof!_S01E13_1080p_HEVC.mkv" -i "G:\\\xc0\xed\xe8\xec\xe5\\\xce\xed\xe3\xee\xe8\xed\xe3\xe8\\!_37_\xc7\xe8\xec\xe0_2025\\JamClub\\\xc3\xee\xf1\xef\xee\xe4\xe8\xed \xe8 \xef\xb8\xf1\\JamClub_Tono_to_Inu_Woof_Woof!_S01E13_1080p.mp4" -lavfi "[0:v]settb=AVTB,setpts=PTS-STARTPTS,format=pix_fmts=yuv420p10,fps=24000/1001,scale=1920:1080:flags=bicubic[main];[1:v]settb=AVTB,setpts=PTS-STARTPTS,format=pix_fmts=yuv420p,fps=24000/1001,scale=1920:1080:flags=bicubic[ref];[main][ref]psnr=eof_action=endall:stats_file='D\\:/Convert/FFMetrics/logs/psnr_logfile-6.txt'" -f null -
Input #0, matroska,webm, from 'G:\Аниме\Онгоинги\!_37_Зима_2025\JamClub\Господин и пёс\JamClub_Tono_to_Inu_Woof_Woof!_S01E13_1080p_HEVC.mkv':
  Metadata:
    COMPATIBLE_BRANDS: isomiso2avc1mp41
    MAJOR_BRAND     : isom
    MINOR_VERSION   : 512
    ENCODER         : Lavf61.7.100
  Duration: 00:02:56.37, start: -0.021000, bitrate: 1729 kb/s
  Stream #0:0: Video: hevc (Main 10), yuv420p10le(tv, bt709, progressive), 1920x1080 [SAR 1:1 DAR 16:9], 23.98 fps, 23.98 tbr, 1k tbn (default)
      Metadata:
        HANDLER_NAME    : VideoHandler
        VENDOR_ID       : [0][0][0][0]
        ENCODER         : Lavc61.19.100 libx265
        BPS             : 1541649
        DURATION        : 00:02:55.216708333
        NUMBER_OF_FRAMES: 4201
        NUMBER_OF_BYTES : 33765218
        _STATISTICS_WRITING_APP: mkvpropedit v66.0.0 ('Josie') 64-bit
        _STATISTICS_WRITING_DATE_UTC: 2025-06-28 16:03:38
        _STATISTICS_TAGS: BPS DURATION NUMBER_OF_FRAMES NUMBER_OF_BYTES
  Stream #0:1(eng): Audio: aac (LC), 48000 Hz, stereo, fltp (default)
      Metadata:
        HANDLER_NAME    : SoundHandler
        VENDOR_ID       : [0][0][0][0]
        ENCODER         : Lavc61.19.100 aac
        BPS             : 193442
        DURATION        : 00:02:56.344000000
        NUMBER_OF_FRAMES: 8267
        NUMBER_OF_BYTES : 4264064
        _STATISTICS_WRITING_APP: mkvpropedit v66.0.0 ('Josie') 64-bit
        _STATISTICS_WRITING_DATE_UTC: 2025-06-28 16:03:38
        _STATISTICS_TAGS: BPS DURATION NUMBER_OF_FRAMES NUMBER_OF_BYTES
Input #1, mov,mp4,m4a,3gp,3g2,mj2, from 'G:\Аниме\Онгоинги\!_37_Зима_2025\JamClub\Господин и пёс\JamClub_Tono_to_Inu_Woof_Woof!_S01E13_1080p.mp4':
  Metadata:
    major_brand     : isom
    minor_version   : 512
    compatible_brands: isomiso2avc1mp41
    encoder         : Lavf60.16.100
  Duration: 00:02:56.34, start: 0.000000, bitrate: 3921 kb/s
  Stream #1:0[0x1](und): Video: h264 (High) (avc1 / 0x31637661), yuv420p(tv, bt709, progressive), 1920x1080 [SAR 1:1 DAR 16:9], 3747 kb/s, 23.98 fps, 23.98 tbr, 90k tbn (default)
      Metadata:
        handler_name    : VideoHandler
        vendor_id       : [0][0][0][0]
  Stream #1:1[0x2](eng): Audio: aac (LC) (mp4a / 0x6134706D), 48000 Hz, stereo, fltp, 191 kb/s (default)
      Metadata:
        handler_name    : SoundHandler
        vendor_id       : [0][0][0][0]
Stream mapping:
  Stream #0:0 (hevc) -> settb:default
  Stream #1:0 (h264) -> settb:default
  psnr:default -> Stream #0:0 (wrapped_avframe)
  Stream #0:1 -> #0:1 (aac (native) -> pcm_s16le (native))
Output #0, null, to 'pipe:':
  Metadata:
    COMPATIBLE_BRANDS: isomiso2avc1mp41
    MAJOR_BRAND     : isom
    MINOR_VERSION   : 512
    encoder         : Lavf61.7.100
  Stream #0:0: Video: wrapped_avframe, yuv420p10le(tv, bt709, progressive), 1920x1080 [SAR 1:1 DAR 16:9], q=2-31, 200 kb/s, 23.98 fps, 23.98 tbn
      Metadata:
        encoder         : Lavc61.19.100 wrapped_avframe
  Stream #0:1(eng): Audio: pcm_s16le, 48000 Hz, stereo, s16, 1536 kb/s (default)
      Metadata:
        HANDLER_NAME    : SoundHandler
        VENDOR_ID       : [0][0][0][0]
        _STATISTICS_TAGS: BPS DURATION NUMBER_OF_FRAMES NUMBER_OF_BYTES
        BPS             : 193442
        DURATION        : 00:02:56.344000000
        NUMBER_OF_FRAMES: 8267
        NUMBER_OF_BYTES : 4264064
        _STATISTICS_WRITING_APP: mkvpropedit v66.0.0 ('Josie') 64-bit
        _STATISTICS_WRITING_DATE_UTC: 2025-06-28 16:03:38
        encoder         : Lavc61.19.100 pcm_s16le
frame=  121 fps=0.0 q=-0.0 size=N/A time=00:00:05.04 bitrate=N/A speed=9.74x    frame=  286 fps=278 q=-0.0 size=N/A time=00:00:11.92 bitrate=N/A speed=11.6x    frame=  493 fps=318 q=-0.0 size=N/A time=00:00:20.56 bitrate=N/A speed=13.2x    frame=  750 fps=364 q=-0.0 size=N/A time=00:00:31.28 bitrate=N/A speed=15.2x    frame= 1016 fps=393 q=-0.0 size=N/A time=00:00:42.37 bitrate=N/A speed=16.4x    frame= 1250 fps=404 q=-0.0 size=N/A time=00:00:52.13 bitrate=N/A speed=16.9x    frame= 1496 fps=415 q=-0.0 size=N/A time=00:01:02.39 bitrate=N/A speed=17.3x    frame= 1732 fps=419 q=-0.0 size=N/A time=00:01:12.23 bitrate=N/A speed=17.5x    frame= 1989 fps=429 q=-0.0 size=N/A time=00:01:22.95 bitrate=N/A speed=17.9x    frame= 2224 fps=432 q=-0.0 size=N/A time=00:01:32.75 bitrate=N/A speed=  18x    frame= 2482 fps=437 q=-0.0 size=N/A time=00:01:43.52 bitrate=N/A speed=18.2x    frame= 2728 fps=441 q=-0.0 size=N/A time=00:01:53.78 bitrate=N/A speed=18.4x    frame= 2952 fps=440 q=-0.0 size=N/A time=00:02:03.12 bitrate=N/A speed=18.4x    frame= 3116 fps=432 q=-0.0 size=N/A time=00:02:09.96 bitrate=N/A speed=  18x    frame= 3365 fps=435 q=-0.0 size=N/A time=00:02:20.34 bitrate=N/A speed=18.1x    frame= 3559 fps=431 q=-0.0 size=N/A time=00:02:28.43 bitrate=N/A speed=  18x    frame= 3759 fps=429 q=-0.0 size=N/A time=00:02:36.78 bitrate=N/A speed=17.9x    frame= 3951 fps=426 q=-0.0 size=N/A time=00:02:44.78 bitrate=N/A speed=17.8x    [Parsed_psnr_10 @ 0000015216b260c0] PSNR y:47.856943 u:49.726790 v:50.709158 average:48.504652 min:37.690439 max:inf
[out#0/null @ 0000015213990f40] video:1805KiB audio:33068KiB subtitle:0KiB other streams:0KiB global headers:0KiB muxing overhead: unknown
frame= 4201 fps=429 q=-0.0 Lsize=N/A time=00:02:55.21 bitrate=N/A speed=17.9x    
